# Blender v3.6.4 OBJ File: ''
# www.blender.org
mtllib eliCube.mtl
o Cube.001
v 0.500000 -0.500000 1.500000
v 0.500000 0.500000 1.500000
v -0.500000 0.500000 1.500000
v -0.500000 -0.500000 1.500000
v 1.500000 -0.500000 -0.500000
v 1.500000 0.500000 -0.500000
v 1.500000 0.500000 0.500000
v 1.500000 -0.500000 0.500000
v -0.500000 -0.500000 -1.500000
v -0.500000 0.500000 -1.500000
v 0.500000 0.500000 -1.500000
v 0.500000 -0.500000 -1.500000
v -1.500000 -0.500000 0.500000
v -1.500000 0.500000 0.500000
v -1.500000 0.500000 -0.500000
v -1.500000 -0.500000 -0.500000
v 0.500000 1.500000 0.500000
v 0.500000 1.500000 -0.500000
v -0.500000 1.500000 -0.500000
v -0.500000 1.500000 0.500000
v 0.500000 -1.500000 -0.500000
v 0.500000 -1.500000 0.500000
v -0.500000 -1.500000 0.500000
v -0.500000 -1.500000 -0.500000
v -0.750000 0.750000 1.000000
v -1.000000 1.000000 1.000000
v -1.000000 -1.000000 1.000000
v -0.750000 -0.750000 1.000000
v 0.750000 0.750000 1.000000
v 1.000000 1.000000 1.000000
v 0.750000 -0.750000 1.000000
v 1.000000 -1.000000 1.000000
v 1.000000 0.750000 0.750000
v 1.000000 -0.750000 0.750000
v 1.000000 0.750000 -0.750000
v 1.000000 1.000000 -1.000000
v 1.000000 -0.750000 -0.750000
v 1.000000 -1.000000 -1.000000
v 0.750000 0.750000 -1.000000
v 0.750000 -0.750000 -1.000000
v -0.750000 0.750000 -1.000000
v -1.000000 1.000000 -1.000000
v -0.750000 -0.750000 -1.000000
v -1.000000 -1.000000 -1.000000
v -1.000000 0.750000 -0.750000
v -1.000000 -0.750000 -0.750000
v -1.000000 0.750000 0.750000
v -1.000000 -0.750000 0.750000
v -0.750000 1.000000 -0.750000
v -0.750000 1.000000 0.750000
v 0.750000 1.000000 -0.750000
v 0.750000 1.000000 0.750000
v -0.750000 -1.000000 0.750000
v -0.750000 -1.000000 -0.750000
v 0.750000 -1.000000 0.750000
v 0.750000 -1.000000 -0.750000
v -0.750000 0.750000 1.250000
v -0.750000 -0.750000 1.250000
v 0.750000 0.750000 1.250000
v 0.750000 -0.750000 1.250000
v 1.250000 0.750000 0.750000
v 1.250000 -0.750000 0.750000
v 1.250000 0.750000 -0.750000
v 1.250000 -0.750000 -0.750000
v 0.750000 0.750000 -1.250000
v 0.750000 -0.750000 -1.250000
v -0.750000 0.750000 -1.250000
v -0.750000 -0.750000 -1.250000
v -1.250000 0.750000 -0.750000
v -1.250000 -0.750000 -0.750000
v -1.250000 0.750000 0.750000
v -1.250000 -0.750000 0.750000
v -0.750000 1.250000 -0.750000
v -0.750000 1.250000 0.750000
v 0.750000 1.250000 -0.750000
v 0.750000 1.250000 0.750000
v -0.750000 -1.250000 0.750000
v -0.750000 -1.250000 -0.750000
v 0.750000 -1.250000 0.750000
v 0.750000 -1.250000 -0.750000
v -0.500000 0.500000 1.250000
v -0.500000 -0.500000 1.250000
v 0.500000 0.500000 1.250000
v 0.500000 -0.500000 1.250000
v 1.250000 0.500000 0.500000
v 1.250000 -0.500000 0.500000
v 1.250000 0.500000 -0.500000
v 1.250000 -0.500000 -0.500000
v 0.500000 0.500000 -1.250000
v 0.500000 -0.500000 -1.250000
v -0.500000 0.500000 -1.250000
v -0.500000 -0.500000 -1.250000
v -1.250000 0.500000 -0.500000
v -1.250000 -0.500000 -0.500000
v -1.250000 0.500000 0.500000
v -1.250000 -0.500000 0.500000
v -0.500000 1.250000 -0.500000
v -0.500000 1.250000 0.500000
v 0.500000 1.250000 -0.500000
v 0.500000 1.250000 0.500000
v -0.500000 -1.250000 0.500000
v -0.500000 -1.250000 -0.500000
v 0.500000 -1.250000 0.500000
v 0.500000 -1.250000 -0.500000
vt 0.750000 0.250000
vt 0.750000 0.750000
vt 0.250000 0.750000
vt 0.250000 0.250000
vt 0.750000 0.250000
vt 0.750000 0.750000
vt 0.250000 0.750000
vt 0.250000 0.250000
vt 0.750000 0.250000
vt 0.750000 0.750000
vt 0.250000 0.750000
vt 0.250000 0.250000
vt 0.750000 0.250000
vt 0.750000 0.750000
vt 0.250000 0.750000
vt 0.250000 0.250000
vt 0.750000 0.250000
vt 0.750000 0.750000
vt 0.250000 0.750000
vt 0.250000 0.250000
vt 0.750000 0.250000
vt 0.750000 0.750000
vt 0.250000 0.750000
vt 0.250000 0.250000
vt 0.125000 0.875000
vt 0.000000 1.000000
vt 0.000000 0.000000
vt 0.125000 0.125000
vt 0.875000 0.875000
vt 1.000000 1.000000
vt 0.875000 0.125000
vt 1.000000 0.000000
vt 0.125000 0.875000
vt 0.000000 1.000000
vt 0.000000 0.000000
vt 0.125000 0.125000
vt 0.875000 0.875000
vt 1.000000 1.000000
vt 0.875000 0.125000
vt 1.000000 0.000000
vt 0.125000 0.875000
vt 0.000000 1.000000
vt 0.000000 0.000000
vt 0.125000 0.125000
vt 0.875000 0.875000
vt 1.000000 1.000000
vt 0.875000 0.125000
vt 1.000000 0.000000
vt 0.125000 0.875000
vt 0.000000 1.000000
vt 0.000000 0.000000
vt 0.125000 0.125000
vt 0.875000 0.875000
vt 1.000000 1.000000
vt 0.875000 0.125000
vt 1.000000 0.000000
vt 0.125000 0.875000
vt 0.000000 0.000000
vt 0.125000 0.125000
vt 0.875000 0.875000
vt 0.875000 0.125000
vt 1.000000 0.000000
vt 0.125000 0.875000
vt 0.000000 1.000000
vt 0.125000 0.125000
vt 0.875000 0.875000
vt 1.000000 1.000000
vt 0.875000 0.125000
vt 0.125000 0.875000
vt 0.125000 0.125000
vt 0.875000 0.875000
vt 0.875000 0.125000
vt 0.125000 0.875000
vt 0.125000 0.125000
vt 0.875000 0.875000
vt 0.875000 0.125000
vt 0.125000 0.875000
vt 0.125000 0.125000
vt 0.875000 0.875000
vt 0.875000 0.125000
vt 0.125000 0.875000
vt 0.125000 0.125000
vt 0.875000 0.875000
vt 0.875000 0.125000
vt 0.125000 0.875000
vt 0.125000 0.125000
vt 0.875000 0.875000
vt 0.875000 0.125000
vt 0.125000 0.875000
vt 0.125000 0.125000
vt 0.875000 0.875000
vt 0.875000 0.125000
vt 0.250000 0.750000
vt 0.250000 0.250000
vt 0.750000 0.750000
vt 0.750000 0.250000
vt 0.250000 0.750000
vt 0.250000 0.250000
vt 0.750000 0.750000
vt 0.750000 0.250000
vt 0.250000 0.750000
vt 0.250000 0.250000
vt 0.750000 0.750000
vt 0.750000 0.250000
vt 0.250000 0.750000
vt 0.250000 0.250000
vt 0.750000 0.750000
vt 0.750000 0.250000
vt 0.250000 0.750000
vt 0.250000 0.250000
vt 0.750000 0.750000
vt 0.750000 0.250000
vt 0.250000 0.750000
vt 0.250000 0.250000
vt 0.750000 0.750000
vt 0.750000 0.250000
vn 0.0000 0.0000 1.0000
vn 1.0000 -0.0000 0.0000
vn 0.0000 0.0000 -1.0000
vn -1.0000 0.0000 0.0000
vn 0.0000 1.0000 0.0000
vn 0.0000 -1.0000 0.0000
usemtl Mat_1
s 1
f 1/1/1 2/2/1 3/3/1 4/4/1
f 5/5/2 6/6/2 7/7/2 8/8/2
f 9/9/3 10/10/3 11/11/3 12/12/3
f 13/13/4 14/14/4 15/15/4 16/16/4
f 17/17/5 18/18/5 19/19/5 20/20/5
f 21/21/6 22/22/6 23/23/6 24/24/6
f 25/25/1 26/26/1 27/27/1 28/28/1
f 29/29/1 30/30/1 26/26/1 25/25/1
f 31/31/1 32/32/1 30/30/1 29/29/1
f 28/28/1 27/27/1 32/32/1 31/31/1
f 33/33/2 30/34/2 32/35/2 34/36/2
f 35/37/2 36/38/2 30/34/2 33/33/2
f 37/39/2 38/40/2 36/38/2 35/37/2
f 34/36/2 32/35/2 38/40/2 37/39/2
f 39/41/3 36/42/3 38/43/3 40/44/3
f 41/45/3 42/46/3 36/42/3 39/41/3
f 43/47/3 44/48/3 42/46/3 41/45/3
f 40/44/3 38/43/3 44/48/3 43/47/3
f 45/49/4 42/50/4 44/51/4 46/52/4
f 47/53/4 26/54/4 42/50/4 45/49/4
f 48/55/4 27/56/4 26/54/4 47/53/4
f 46/52/4 44/51/4 27/56/4 48/55/4
f 49/57/5 42/50/5 26/58/5 50/59/5
f 51/60/5 36/38/5 42/50/5 49/57/5
f 52/61/5 30/62/5 36/38/5 51/60/5
f 50/59/5 26/58/5 30/62/5 52/61/5
f 53/63/6 27/64/6 44/51/6 54/65/6
f 55/66/6 32/67/6 27/64/6 53/63/6
f 56/68/6 38/40/6 32/67/6 55/66/6
f 54/65/6 44/51/6 38/40/6 56/68/6
f 57/69/4 25/25/4 28/28/4 58/70/4
f 59/71/5 29/29/5 25/25/5 57/69/5
f 60/72/2 31/31/2 29/29/2 59/71/2
f 58/70/6 28/28/6 31/31/6 60/72/6
f 61/73/1 33/33/1 34/36/1 62/74/1
f 63/75/5 35/37/5 33/33/5 61/73/5
f 64/76/3 37/39/3 35/37/3 63/75/3
f 62/74/6 34/36/6 37/39/6 64/76/6
f 65/77/2 39/41/2 40/44/2 66/78/2
f 67/79/5 41/45/5 39/41/5 65/77/5
f 68/80/4 43/47/4 41/45/4 67/79/4
f 66/78/6 40/44/6 43/47/6 68/80/6
f 69/81/3 45/49/3 46/52/3 70/82/3
f 71/83/5 47/53/5 45/49/5 69/81/5
f 72/84/1 48/55/1 47/53/1 71/83/1
f 70/82/6 46/52/6 48/55/6 72/84/6
f 73/85/4 49/57/4 50/59/4 74/86/4
f 75/87/3 51/60/3 49/57/3 73/85/3
f 76/88/2 52/61/2 51/60/2 75/87/2
f 74/86/1 50/59/1 52/61/1 76/88/1
f 77/89/4 53/63/4 54/65/4 78/90/4
f 79/91/1 55/66/1 53/63/1 77/89/1
f 80/92/2 56/68/2 55/66/2 79/91/2
f 78/90/3 54/65/3 56/68/3 80/92/3
f 81/93/1 57/69/1 58/70/1 82/94/1
f 83/95/1 59/71/1 57/69/1 81/93/1
f 84/96/1 60/72/1 59/71/1 83/95/1
f 82/94/1 58/70/1 60/72/1 84/96/1
f 85/97/2 61/73/2 62/74/2 86/98/2
f 87/99/2 63/75/2 61/73/2 85/97/2
f 88/100/2 64/76/2 63/75/2 87/99/2
f 86/98/2 62/74/2 64/76/2 88/100/2
f 89/101/3 65/77/3 66/78/3 90/102/3
f 91/103/3 67/79/3 65/77/3 89/101/3
f 92/104/3 68/80/3 67/79/3 91/103/3
f 90/102/3 66/78/3 68/80/3 92/104/3
f 93/105/4 69/81/4 70/82/4 94/106/4
f 95/107/4 71/83/4 69/81/4 93/105/4
f 96/108/4 72/84/4 71/83/4 95/107/4
f 94/106/4 70/82/4 72/84/4 96/108/4
f 97/109/5 73/85/5 74/86/5 98/110/5
f 99/111/5 75/87/5 73/85/5 97/109/5
f 100/112/5 76/88/5 75/87/5 99/111/5
f 98/110/5 74/86/5 76/88/5 100/112/5
f 101/113/6 77/89/6 78/90/6 102/114/6
f 103/115/6 79/91/6 77/89/6 101/113/6
f 104/116/6 80/92/6 79/91/6 103/115/6
f 102/114/6 78/90/6 80/92/6 104/116/6
f 3/3/4 81/93/4 82/94/4 4/4/4
f 2/2/5 83/95/5 81/93/5 3/3/5
f 1/1/2 84/96/2 83/95/2 2/2/2
f 4/4/6 82/94/6 84/96/6 1/1/6
f 7/7/1 85/97/1 86/98/1 8/8/1
f 6/6/5 87/99/5 85/97/5 7/7/5
f 5/5/3 88/100/3 87/99/3 6/6/3
f 8/8/6 86/98/6 88/100/6 5/5/6
f 11/11/2 89/101/2 90/102/2 12/12/2
f 10/10/5 91/103/5 89/101/5 11/11/5
f 9/9/4 92/104/4 91/103/4 10/10/4
f 12/12/6 90/102/6 92/104/6 9/9/6
f 15/15/3 93/105/3 94/106/3 16/16/3
f 14/14/5 95/107/5 93/105/5 15/15/5
f 13/13/1 96/108/1 95/107/1 14/14/1
f 16/16/6 94/106/6 96/108/6 13/13/6
f 19/19/4 97/109/4 98/110/4 20/20/4
f 18/18/3 99/111/3 97/109/3 19/19/3
f 17/17/2 100/112/2 99/111/2 18/18/2
f 20/20/1 98/110/1 100/112/1 17/17/1
f 23/23/4 101/113/4 102/114/4 24/24/4
f 22/22/1 103/115/1 101/113/1 23/23/1
f 21/21/2 104/116/2 103/115/2 22/22/2
f 24/24/3 102/114/3 104/116/3 21/21/3
